<svg width="18" height="18" viewBox="0 0 18 18" fill="none" xmlns="http://www.w3.org/2000/svg">
<path d="M14.4223 11.4451L12.5173 11.2276C12.2933 11.2013 12.0662 11.2261 11.8532 11.3001C11.6402 11.3741 11.4467 11.4955 11.2873 11.6551L9.90729 13.0351C7.77833 11.952 6.04783 10.2215 4.96479 8.09257L6.35229 6.70507C6.67479 6.38257 6.83229 5.93257 6.77979 5.47507L6.56229 3.58507C6.51992 3.21914 6.34439 2.88159 6.06913 2.63677C5.79388 2.39194 5.43816 2.25697 5.06979 2.25757H3.77229C2.92479 2.25757 2.21979 2.96257 2.27229 3.81007C2.66979 10.2151 7.79229 15.3301 14.1898 15.7276C15.0373 15.7801 15.7423 15.0751 15.7423 14.2276V12.9301C15.7498 12.1726 15.1798 11.5351 14.4223 11.4451Z" fill="#1E1E1E"/>
</svg>
