<svg width="80" height="80" viewBox="0 0 80 80" fill="none" xmlns="http://www.w3.org/2000/svg">
<path d="M23.3667 34.0233H20.22L18.5033 42.85H21.2967C23.15 42.85 24.53 42.5011 25.4367 41.8033C26.3433 41.1033 26.9544 39.9377 27.27 38.3066C27.5744 36.74 27.4367 35.6344 26.8567 34.99C26.2744 34.3455 25.1111 34.0233 23.3667 34.0233ZM40 18.96C17.91 18.96 0 28.38 0 40C0 51.62 17.91 61.0433 40 61.0433C62.09 61.0433 80 51.62 80 40C80 28.38 62.09 18.96 40 18.96ZM29.1333 43.7966C28.2633 44.63 27.2167 45.2566 26.0767 45.6333C24.9544 45.9955 23.5267 46.1777 21.7933 46.18H17.8567L16.7667 51.7833H12.1733L16.2733 30.6966H25.1067C27.7622 30.6966 29.7 31.3944 30.92 32.79C32.14 34.1833 32.5067 36.13 32.02 38.63C31.8356 39.6197 31.4923 40.5732 31.0033 41.4533C30.5256 42.3044 29.9022 43.0855 29.1333 43.7966ZM42.5467 46.18L44.3567 36.85C44.5656 35.7877 44.49 35.0644 44.13 34.68C43.7744 34.2933 43.0111 34.1 41.84 34.1H38.2L35.8533 46.1833H31.2933L35.3933 25.0933H39.95L38.86 30.7H42.92C45.4756 30.7 47.2378 31.1455 48.2067 32.0366C49.66 33.3733 49.4667 34.37 49.0833 36.3666L47.1767 46.18H42.5467ZM67.87 38.63C67.6856 39.6197 67.3423 40.5732 66.8533 41.4533C66.3778 42.3044 65.7544 43.0855 64.9833 43.7966C64.1129 44.6274 63.0689 45.2547 61.9267 45.6333C60.8067 45.9955 59.3778 46.1777 57.64 46.18H53.7067L52.6167 51.7866H48.0233L52.1233 30.7H60.9533C63.6089 30.7 65.5467 31.3977 66.7667 32.7933C67.9889 34.1844 68.3567 36.13 67.87 38.63ZM59.22 34.0233H56.0767L54.3567 42.85H57.15C59.0056 42.85 60.3856 42.5011 61.29 41.8033C62.1944 41.1033 62.8067 39.9377 63.1267 38.3066C63.4311 36.74 63.2922 35.6344 62.71 34.99C61.8367 34.0233 60.9633 34.0233 59.22 34.0233Z" fill="#060606"/>
</svg>
