<svg width="80" height="80" viewBox="0 0 80 80" fill="none" xmlns="http://www.w3.org/2000/svg">
<path d="M49.0625 5.68403C46.1578 5.20591 41.9063 4.98559 39.0203 4.99966C36.3153 5.00272 33.6153 5.23164 30.9485 5.68403C23.8016 6.93403 22.5 9.54341 22.5 14.3622V19.9997H40V22.4997H16.8156C10.3219 22.4997 5.05158 30.2606 5.00002 39.8622V39.9997C4.99786 41.6784 5.16168 43.3532 5.48908 44.9997C6.94065 52.2309 11.4625 57.4997 16.8156 57.4997H20V49.0622C20 44.1715 23.2563 39.695 28.5938 38.734L30.136 38.5418H49.0625C49.8574 38.545 50.6491 38.4399 51.4156 38.2293C53.1682 37.7614 54.7161 36.7255 55.8171 35.2838C56.9181 33.8421 57.5099 32.0761 57.5 30.2622V14.3622C57.5 9.84341 53.6438 6.43559 49.0625 5.68403ZM30.4578 16.484C29.8274 16.4862 29.2105 16.3011 28.6855 15.9522C28.1604 15.6033 27.7507 15.1063 27.5085 14.5243C27.2662 13.9423 27.2023 13.3014 27.3247 12.683C27.4472 12.0646 27.7505 11.4964 28.1963 11.0506C28.6421 10.6049 29.2102 10.3015 29.8287 10.1791C30.4471 10.0566 31.0879 10.1205 31.67 10.3628C32.252 10.605 32.749 11.0147 33.0979 11.5398C33.4468 12.0649 33.6319 12.6817 33.6297 13.3122C33.6299 13.7287 33.548 14.1413 33.3887 14.5262C33.2294 14.9111 32.9957 15.2609 32.7011 15.5555C32.4066 15.85 32.0568 16.0837 31.6719 16.243C31.287 16.4023 30.8744 16.4842 30.4578 16.484Z" fill="#060606"/>
<path d="M74.2625 33.9063C72.5906 27.2484 68.2609 22.5 63.1844 22.5H60.4172V29.9141C60.4172 36.0969 56.3547 40.5734 51.3953 41.3406C50.8944 41.4183 50.3882 41.4575 49.8812 41.4578H30.95C30.147 41.457 29.3472 41.5594 28.5703 41.7625C25.0844 42.6781 22.5 45.5781 22.5 49.3391V65.2406C22.5 69.7719 27.0531 72.4281 31.5203 73.7266C36.8656 75.2813 42.6891 75.5625 49.0859 73.7266C53.3344 72.5125 57.5 70.0578 57.5 65.2406V60H40V57.5H63.1844C67.7844 57.5 71.7703 53.6047 73.7234 47.9203C74.5813 45.3683 75.0126 42.6923 75 40C75.0045 37.9462 74.7568 35.8997 74.2625 33.9063ZM49.4547 63.125C50.0851 63.1228 50.702 63.3079 51.2271 63.6568C51.7522 64.0057 52.1618 64.5027 52.404 65.0847C52.6463 65.6668 52.7103 66.3076 52.5878 66.9261C52.4653 67.5445 52.162 68.1126 51.7162 68.5584C51.2704 69.0042 50.7023 69.3075 50.0839 69.43C49.4654 69.5524 48.8246 69.4885 48.2426 69.2462C47.6605 69.004 47.1636 68.5943 46.8147 68.0693C46.4658 67.5442 46.2806 66.9273 46.2828 66.2969C46.2826 65.8803 46.3645 65.4677 46.5238 65.0828C46.6832 64.6979 46.9168 64.3481 47.2114 64.0536C47.506 63.759 47.8557 63.5254 48.2406 63.366C48.6255 63.2067 49.0381 63.1248 49.4547 63.125Z" fill="#060606"/>
</svg>
