<svg width="40" height="40" viewBox="0 0 40 40" fill="none" xmlns="http://www.w3.org/2000/svg">
<g clip-path="url(#clip0_538_907)">
<path d="M17.5003 26.6166L18.1837 30.6833C17.7503 30.9166 17.0503 31.1333 16.117 31.3333C15.167 31.5499 14.0503 31.6666 12.767 31.6666C9.08366 31.5999 6.31699 30.4999 4.46699 28.3999C2.60033 26.2833 1.66699 23.5999 1.66699 20.3499C1.75033 16.4999 2.86699 13.5499 5.00033 11.4833C7.20033 9.39992 9.93366 8.33325 13.2337 8.33325C14.4837 8.33325 15.567 8.44992 16.467 8.64992C17.367 8.84992 18.0337 9.06659 18.467 9.31659L17.5003 13.4666L15.7337 12.8999C15.067 12.7333 14.3003 12.6499 13.417 12.6499C11.4837 12.6333 9.88366 13.2499 8.63366 14.4833C7.36699 15.6999 6.71699 17.5666 6.66699 20.0499C6.66699 22.3166 7.28366 24.0833 8.46699 25.3833C9.65033 26.6666 11.317 27.3333 13.4503 27.3499L15.667 27.1499C16.3837 27.0166 16.9837 26.8333 17.5003 26.6166ZM18.3337 18.3333H21.667V14.9999H25.0003V18.3333H28.3337V21.6666H25.0003V24.9999H21.667V21.6666H18.3337V18.3333ZM30.0003 18.3333H33.3337V14.9999H36.667V18.3333H40.0003V21.6666H36.667V24.9999H33.3337V21.6666H30.0003V18.3333Z" fill="#1E1E1E"/>
</g>
<defs>
<clipPath id="clip0_538_907">
<rect width="40" height="40" fill="white"/>
</clipPath>
</defs>
</svg>
