<svg width="40" height="40" viewBox="0 0 40 40" fill="none" xmlns="http://www.w3.org/2000/svg">
<path d="M8.33301 20V30C8.33301 30 8.33301 35 19.9997 35C31.6663 35 31.6663 30 31.6663 30V20" stroke="#1E1E1E" stroke-width="2"/>
<path d="M8.33301 10V20C8.33301 20 8.33301 25 19.9997 25C31.6663 25 31.6663 20 31.6663 20V10" stroke="#1E1E1E" stroke-width="2"/>
<path d="M19.9997 5C31.6663 5 31.6663 10 31.6663 10C31.6663 10 31.6663 15 19.9997 15C8.33301 15 8.33301 10 8.33301 10C8.33301 10 8.33301 5 19.9997 5Z" stroke="#1E1E1E" stroke-width="2"/>
</svg>
