<svg width="40" height="40" viewBox="0 0 40 40" fill="none" xmlns="http://www.w3.org/2000/svg">
<path fill-rule="evenodd" clip-rule="evenodd" d="M14.4451 15.6949C13.8797 15.6949 13.3199 15.8063 12.7976 16.0226C12.2753 16.239 11.8007 16.5561 11.401 16.9558C11.0012 17.3556 10.6841 17.8302 10.4678 18.3525C10.2514 18.8748 10.1401 19.4346 10.1401 19.9999C10.1401 20.5653 10.2514 21.1251 10.4678 21.6474C10.6841 22.1697 11.0012 22.6443 11.401 23.044C11.8007 23.4438 12.2753 23.7609 12.7976 23.9772C13.3199 24.1936 13.8797 24.3049 14.4451 24.3049H18.7501V15.6949H14.4451ZM18.7501 13.1949H14.4451C13.3031 13.1949 12.2079 12.7413 11.4004 11.9338C10.5929 11.1263 10.1392 10.0311 10.1392 8.88909C10.1392 7.74711 10.5929 6.6519 11.4004 5.8444C12.2079 5.0369 13.3031 4.58325 14.4451 4.58325H18.7501V13.1949ZM21.2501 4.58325V13.1949H25.5551C26.6824 13.1727 27.756 12.7093 28.5454 11.9043C29.3348 11.0992 29.777 10.0166 29.777 8.88909C29.777 7.76156 29.3348 6.679 28.5454 5.87391C27.756 5.06883 26.6824 4.60543 25.5551 4.58325H21.2501ZM25.5551 15.6933C24.425 15.6931 23.3403 16.1373 22.5349 16.9299C21.7295 17.7225 21.268 18.8 21.2501 19.9299V20.0683C21.2639 20.9166 21.528 21.7419 22.0094 22.4406C22.4907 23.1393 23.1678 23.6802 23.9555 23.9953C24.7433 24.3104 25.6066 24.3858 26.437 24.2118C27.2674 24.0379 28.0279 23.6225 28.623 23.0177C29.2181 22.4129 29.6212 21.6458 29.7817 20.8127C29.9423 19.9796 29.853 19.1176 29.5252 18.335C29.1974 17.5525 28.6457 16.8842 27.9393 16.4142C27.233 15.9442 26.4035 15.6934 25.5551 15.6933ZM14.4451 26.8049C13.5932 26.8046 12.7604 27.0569 12.0519 27.5299C11.3435 28.0029 10.7912 28.6754 10.465 29.4623C10.1388 30.2492 10.0533 31.1152 10.2193 31.9508C10.3853 32.7863 10.7953 33.5538 11.3975 34.1563C11.9998 34.7587 12.7671 35.1691 13.6026 35.3354C14.438 35.5017 15.3041 35.4165 16.0911 35.0906C16.8781 34.7647 17.5508 34.2127 18.0241 33.5044C18.4974 32.7961 18.7501 31.9634 18.7501 31.1116V26.8049H14.4451Z" fill="#1E1E1E"/>
</svg>
