<svg width="40" height="40" viewBox="0 0 40 40" fill="none" xmlns="http://www.w3.org/2000/svg">
<path d="M18.033 14.045C16.7663 12.2366 16.2897 10.925 16.1863 9.96996C16.088 9.06996 16.308 8.35329 16.7447 7.66496C17.2163 6.91996 17.9247 6.22829 18.8247 5.40996C19.6663 4.64662 20.7197 3.73829 21.5463 2.70996L18.9497 0.623291C18.2563 1.48496 17.403 2.20162 16.5863 2.94162C15.6963 3.74996 14.6713 4.71162 13.9313 5.88162C13.1547 7.10662 12.6813 8.56662 12.873 10.3316C13.0597 12.0416 13.853 13.885 15.303 15.9566L18.033 14.045ZM20.1163 8.99496C20.5897 7.85496 21.5513 6.71162 23.083 5.40162L25.2497 7.93162C23.8647 9.11996 23.368 9.85329 23.1913 10.2766C23.018 10.6933 23.133 11.1083 23.2497 11.5216C23.3897 12.015 23.6213 12.8383 23.6063 13.725C23.5863 14.9016 23.183 16.145 22.2197 17.5916L19.4463 15.7416C20.1497 14.6883 20.2663 14.0583 20.273 13.67C20.2813 13.1783 20.153 12.9033 19.9447 12.07C19.7447 11.2733 19.5963 10.2416 20.1163 8.99496ZM10.2347 16.6666C11.018 16.1433 11.9847 15.8766 12.888 15.66L12.1097 12.4166C10.7547 12.7433 9.52467 13.1833 8.58967 13.7616C7.73967 14.2883 6.66634 15.2266 6.66634 16.6666C6.66634 17.8766 7.47634 18.8433 8.44134 19.4766C8.36864 19.7892 8.33229 20.1091 8.33301 20.43C8.33301 22.0633 9.02967 23.4416 10.238 24.4633C10.0597 24.9633 9.97967 25.52 10.0047 26.0766C8.70967 26.3283 7.44467 26.6983 6.38801 27.1833C5.66801 27.5133 4.95801 27.935 4.40467 28.4783C3.84801 29.0266 3.33301 29.8183 3.33301 30.8333C3.33301 31.545 3.64801 32.12 3.95634 32.5166C4.27134 32.92 4.67634 33.265 5.09634 33.5566C5.93967 34.1416 7.06967 34.6716 8.36134 35.1166C10.958 36.0133 14.4763 36.6666 18.333 36.6666C23.878 36.6666 27.7713 36.0266 30.3163 35.3633C31.2834 35.1174 32.2323 34.805 33.1563 34.4283C33.5063 34.2816 33.8563 34.1266 34.183 33.9333C34.1997 33.9233 32.4697 31.075 32.4763 31.07C31.5363 31.56 30.4963 31.87 29.4763 32.1366C27.228 32.7233 23.6213 33.3333 18.333 33.3333C14.8263 33.3333 11.678 32.7366 9.44967 31.9666C8.56301 31.66 7.63634 31.3033 6.88134 30.7333C7.07301 30.5833 7.36467 30.4016 7.77801 30.2133C8.70801 29.7866 9.98301 29.4366 11.3447 29.2283C11.7269 29.6338 12.1791 29.9894 12.7013 30.295C14.3097 31.2316 16.5213 31.6666 19.1663 31.6666C21.3497 31.6666 22.9297 31.4466 23.9963 31.21C24.5897 31.08 25.1863 30.9316 25.733 30.6633C25.738 30.66 24.2647 27.6716 24.2647 27.6716C23.9413 27.7883 23.6119 27.8827 23.2763 27.955C22.4613 28.1366 21.1263 28.3333 19.1663 28.3333C16.8113 28.3333 15.273 27.9333 14.3813 27.415C13.6713 27.0016 13.3997 26.5416 13.3447 26.0416C14.7913 26.4633 16.503 26.6666 18.438 26.6666C20.8763 26.6666 22.6347 26.4283 23.818 26.1716C24.4613 26.0333 25.1097 25.8733 25.708 25.595C25.7413 25.5783 24.2797 22.5833 24.2797 22.5833C23.9006 22.7253 23.5103 22.8357 23.113 22.9133C22.1797 23.115 20.658 23.3333 18.4363 23.3333C15.7647 23.3333 13.9863 22.8933 12.933 22.295C12.148 21.8483 11.803 21.3483 11.6997 20.8116C13.7663 21.355 16.3747 21.6666 19.1663 21.6666C22.1947 21.6666 25.003 21.3 27.138 20.67L26.1947 17.4733C24.438 17.9916 21.9613 18.3333 19.1663 18.3333C16.293 18.3333 13.758 17.9733 11.9963 17.43C11.163 17.175 10.5863 16.9033 10.2363 16.6666M29.3163 17.91C31.338 17.7266 32.083 18.2233 32.323 18.48C32.5713 18.7466 32.658 19.16 32.5497 19.5966C32.3563 20.37 31.8113 21.12 30.928 21.81C30.0463 22.4983 28.928 23.0433 27.8063 23.4183L28.8597 26.58C30.2397 26.12 31.723 25.4166 32.978 24.4383C34.228 23.4616 35.3513 22.13 35.783 20.405C36.0913 19.1716 35.9697 17.5033 34.7597 16.205C33.543 14.9016 31.578 14.3566 29.0147 14.59L29.3163 17.91Z" fill="#1E1E1E"/>
</svg>
