<svg width="70" height="80" viewBox="0 0 70 80" fill="none" xmlns="http://www.w3.org/2000/svg">
<g clip-path="url(#clip0_507_995)">
<path d="M62.1429 5H7.45714C3.34018 5 0 8.35938 0 12.5V67.5C0 71.6406 3.34018 75 7.45714 75H62.1429C66.2598 75 69.6 71.6406 69.6 67.5V12.5C69.6 8.35938 66.2598 5 62.1429 5ZM37.8761 59.5937C37.8761 66.4062 33.8989 69.5156 28.1041 69.5156C22.8686 69.5156 19.8391 66.7969 18.2855 63.5L23.6143 60.2656C24.6396 62.0938 25.5718 63.6406 27.8245 63.6406C29.9684 63.6406 31.3355 62.7969 31.3355 59.5V37.1406H37.8761V59.5937ZM53.3496 69.5156C47.2752 69.5156 43.3446 66.6094 41.4338 62.7969L46.7625 59.7031C48.1607 62 49.9939 63.7031 53.2098 63.7031C55.913 63.7031 57.653 62.3437 57.653 60.4531C57.653 58.2031 55.882 57.4062 52.8836 56.0781L51.2523 55.375C46.5295 53.3594 43.4068 50.8125 43.4068 45.4531C43.4068 40.5156 47.1509 36.7656 52.9768 36.7656C57.1404 36.7656 60.1232 38.2188 62.2671 42.0312L57.1714 45.3125C56.0529 43.2969 54.8411 42.5 52.9612 42.5C51.0504 42.5 49.8386 43.7188 49.8386 45.3125C49.8386 47.2813 51.0504 48.0781 53.8623 49.3125L55.4936 50.0156C61.0554 52.4063 64.178 54.8594 64.178 60.3594C64.178 66.2656 59.5484 69.5156 53.3496 69.5156Z" fill="#060606"/>
</g>
<defs>
<clipPath id="clip0_507_995">
<rect width="69.6" height="80" fill="white"/>
</clipPath>
</defs>
</svg>
